<svg xmlns="http://www.w3.org/2000/svg" viewBox="0 0 512 512" fill="none" stroke="currentColor" stroke-width="24" stroke-linecap="round" stroke-linejoin="round">
  <rect x="2" y="2" width="508" height="508" rx="80" fill="#3B6CDB" stroke="none"/>
  <g transform="translate(56, 56) scale(0.78)" stroke="white" fill="none">
    <!-- Clipboard body -->
    <rect x="30" y="60" width="280" height="360" rx="30" stroke-width="28"/>
    <!-- Clipboard clip -->
    <path d="M130 60V40a40 40 0 0 1 80 0v20" stroke-width="28"/>
    <rect x="120" y="20" width="100" height="50" rx="12" stroke-width="28"/>
    <!-- Lines -->
    <line x1="90" y1="160" x2="260" y2="160" stroke-width="22"/>
    <line x1="90" y1="210" x2="260" y2="210" stroke-width="22"/>
    <line x1="90" y1="260" x2="220" y2="260" stroke-width="22"/>
    <line x1="90" y1="310" x2="200" y2="310" stroke-width="22"/>
    <!-- Check circle -->
    <circle cx="240" cy="360" r="55" stroke-width="28" fill="#3B6CDB"/>
    <path d="M215 360l18 18 35-35" stroke-width="22"/>
    <!-- Tree branches -->
    <path d="M340 200h60v200h60" stroke-width="28"/>
    <path d="M400 280h60" stroke-width="28"/>
    <rect x="450" y="180" width="40" height="40" rx="6" stroke-width="20"/>
    <rect x="450" y="260" width="40" height="40" rx="6" stroke-width="20"/>
    <rect x="450" y="380" width="40" height="40" rx="6" stroke-width="20"/>
  </g>
</svg>
